<mxfile host="app.diagrams.net" agent="Mozilla/5.0 (Windows NT 10.0; Win64; x64) AppleWebKit/537.36 (KHTML, like Gecko) Chrome/136.0.0.0 Safari/537.36" version="27.0.8">
  <diagram name="第 1 页" id="2yJvqR2cAJDVEvftpMDe">
    <mxGraphModel dx="652" dy="388" grid="1" gridSize="10" guides="1" tooltips="1" connect="1" arrows="1" fold="1" page="1" pageScale="1" pageWidth="827" pageHeight="1169" math="0" shadow="0">
      <root>
        <mxCell id="0" />
        <mxCell id="1" parent="0" />
        <mxCell id="xoAuDAIYuOt8U0vVnmyF-1" value="User" style="shape=umlActor;verticalLabelPosition=bottom;verticalAlign=top;html=1;rounded=0;labelBackgroundColor=none;fillColor=#F2CC8F;strokeColor=#E07A5F;fontColor=#393C56;" parent="1" vertex="1">
          <mxGeometry x="158" y="80" width="30" height="60" as="geometry" />
        </mxCell>
        <mxCell id="xoAuDAIYuOt8U0vVnmyF-2" value="controller:&lt;br&gt;carChargeController" style="rounded=0;whiteSpace=wrap;html=1;labelBackgroundColor=none;fillColor=#F2CC8F;strokeColor=#E07A5F;fontColor=#393C56;" parent="1" vertex="1">
          <mxGeometry x="252.37" y="210" width="120" height="60" as="geometry" />
        </mxCell>
        <mxCell id="xoAuDAIYuOt8U0vVnmyF-3" value="" style="endArrow=classic;dashed=1;html=1;rounded=0;entryX=0;entryY=0.5;entryDx=0;entryDy=0;startArrow=none;startFill=0;endFill=1;labelBackgroundColor=none;strokeColor=#E07A5F;fontColor=default;" parent="1" source="xoAuDAIYuOt8U0vVnmyF-1" target="xoAuDAIYuOt8U0vVnmyF-10" edge="1">
          <mxGeometry width="50" height="50" relative="1" as="geometry">
            <mxPoint x="128" y="138" as="sourcePoint" />
            <mxPoint x="238" y="120" as="targetPoint" />
          </mxGeometry>
        </mxCell>
        <mxCell id="xoAuDAIYuOt8U0vVnmyF-9" value="" style="edgeStyle=orthogonalEdgeStyle;rounded=0;orthogonalLoop=1;jettySize=auto;html=1;endArrow=none;startFill=0;labelBackgroundColor=none;strokeColor=#E07A5F;fontColor=default;" parent="1" source="xoAuDAIYuOt8U0vVnmyF-10" target="xoAuDAIYuOt8U0vVnmyF-2" edge="1">
          <mxGeometry relative="1" as="geometry" />
        </mxCell>
        <mxCell id="xoAuDAIYuOt8U0vVnmyF-10" value=":&amp;lt;&amp;lt;UI&amp;gt;&amp;gt;&lt;div&gt;charge&lt;/div&gt;&lt;div&gt;Window&lt;/div&gt;" style="rounded=0;whiteSpace=wrap;html=1;labelBackgroundColor=none;fillColor=#F2CC8F;strokeColor=#E07A5F;fontColor=#393C56;" parent="1" vertex="1">
          <mxGeometry x="252.37" y="80" width="120" height="60" as="geometry" />
        </mxCell>
        <mxCell id="xoAuDAIYuOt8U0vVnmyF-11" value="" style="endArrow=classic;html=1;rounded=0;strokeColor=#E07A5F;fontColor=#393C56;fillColor=#F2CC8F;" parent="1" edge="1">
          <mxGeometry width="50" height="50" relative="1" as="geometry">
            <mxPoint x="324" y="150" as="sourcePoint" />
            <mxPoint x="324" y="200" as="targetPoint" />
          </mxGeometry>
        </mxCell>
        <mxCell id="xoAuDAIYuOt8U0vVnmyF-12" value="2:eligible=Start_Charging(car_id,ChargePileNum)" style="text;html=1;align=center;verticalAlign=middle;resizable=0;points=[];autosize=1;strokeColor=none;fillColor=none;fontColor=#393C56;" parent="1" vertex="1">
          <mxGeometry x="320" y="159.6" width="290" height="30" as="geometry" />
        </mxCell>
        <mxCell id="xoAuDAIYuOt8U0vVnmyF-13" value=":&amp;lt;&amp;lt;UI&amp;gt;&amp;gt;&lt;div&gt;charging&lt;/div&gt;&lt;div&gt;Window&lt;/div&gt;" style="rounded=0;whiteSpace=wrap;html=1;labelBackgroundColor=none;fillColor=#F2CC8F;strokeColor=#E07A5F;fontColor=#393C56;" parent="1" vertex="1">
          <mxGeometry x="252.37" y="338" width="120" height="60" as="geometry" />
        </mxCell>
        <mxCell id="xoAuDAIYuOt8U0vVnmyF-16" value="3:[eligible=ture]&lt;div&gt;create(thePile,controller)&lt;/div&gt;" style="text;html=1;align=center;verticalAlign=middle;resizable=0;points=[];autosize=1;strokeColor=none;fillColor=none;fontColor=#393C56;" parent="1" vertex="1">
          <mxGeometry x="320" y="280" width="150" height="40" as="geometry" />
        </mxCell>
        <mxCell id="xoAuDAIYuOt8U0vVnmyF-19" value="" style="endArrow=none;html=1;rounded=0;strokeColor=#E07A5F;fontColor=#393C56;fillColor=#F2CC8F;entryX=0.5;entryY=0;entryDx=0;entryDy=0;" parent="1" source="xoAuDAIYuOt8U0vVnmyF-2" target="xoAuDAIYuOt8U0vVnmyF-13" edge="1">
          <mxGeometry width="50" height="50" relative="1" as="geometry">
            <mxPoint x="312.37" y="320" as="sourcePoint" />
            <mxPoint x="312.37" y="340.71067811865476" as="targetPoint" />
          </mxGeometry>
        </mxCell>
        <mxCell id="xoAuDAIYuOt8U0vVnmyF-20" value="" style="endArrow=classic;html=1;rounded=0;strokeColor=#E07A5F;fontColor=#393C56;fillColor=#F2CC8F;" parent="1" edge="1">
          <mxGeometry width="50" height="50" relative="1" as="geometry">
            <mxPoint x="300" y="149.6" as="sourcePoint" />
            <mxPoint x="300" y="199.6" as="targetPoint" />
          </mxGeometry>
        </mxCell>
        <mxCell id="xoAuDAIYuOt8U0vVnmyF-21" value="1:create()" style="text;html=1;align=center;verticalAlign=middle;resizable=0;points=[];autosize=1;strokeColor=none;fillColor=none;" parent="1" vertex="1">
          <mxGeometry x="230" y="159.6" width="70" height="30" as="geometry" />
        </mxCell>
        <mxCell id="VarSOkx2K-Ustlfs1vAp-1" value="" style="endArrow=classic;html=1;rounded=0;strokeColor=#E07A5F;fontColor=#393C56;fillColor=#F2CC8F;" edge="1" parent="1">
          <mxGeometry width="50" height="50" relative="1" as="geometry">
            <mxPoint x="325" y="280" as="sourcePoint" />
            <mxPoint x="325" y="330" as="targetPoint" />
          </mxGeometry>
        </mxCell>
      </root>
    </mxGraphModel>
  </diagram>
</mxfile>
